<?xml version="1.0" standalone="no"?>
<!DOCTYPE svg PUBLIC "-//W3C//DTD SVG 20010904//EN"
 "http://www.w3.org/TR/2001/REC-SVG-20010904/DTD/svg10.dtd">
<svg version="1.0" xmlns="http://www.w3.org/2000/svg"
 width="500.000000pt" height="500.000000pt" viewBox="0 0 500.000000 500.000000"
 preserveAspectRatio="xMidYMid meet">

<g transform="translate(0.000000,500.000000) scale(0.100000,-0.100000)"
fill="#000000" stroke="none">
<path d="M1745 3546 c-34 -15 -86 -70 -111 -118 -9 -17 -39 -59 -68 -92 -28
-34 -62 -78 -75 -99 -13 -21 -24 -37 -26 -35 -1 2 1 28 6 58 9 66 10 186 0
219 -11 40 -26 34 -52 -20 -33 -71 -35 -204 -3 -264 l21 -39 -38 -81 c-20 -44
-43 -99 -50 -122 -7 -24 -16 -43 -21 -43 -4 0 -9 28 -9 63 -2 84 -11 121 -31
125 -39 8 -62 -112 -38 -199 6 -20 21 -48 33 -61 22 -24 23 -31 19 -134 -2
-60 0 -134 6 -164 6 -30 9 -56 9 -57 -1 -1 -22 24 -47 55 -44 56 -112 104
-126 89 -4 -3 1 -28 11 -54 22 -58 109 -148 153 -158 24 -5 33 -14 43 -43 6
-20 33 -82 59 -138 l47 -101 -56 34 c-92 56 -140 58 -120 6 25 -68 117 -127
189 -122 36 3 40 0 91 -68 79 -103 116 -143 135 -143 16 0 16 1 0 19 -11 12
-21 47 -26 86 -9 74 -56 180 -80 180 -18 0 -15 -69 5 -127 7 -21 11 -38 9 -38
-7 0 -106 147 -140 207 l-35 62 22 61 c18 51 21 74 16 146 -5 94 -18 120 -42
88 -20 -27 -38 -113 -33 -162 2 -23 1 -38 -3 -34 -12 13 -48 136 -60 203 l-12
66 40 37 c23 20 52 61 67 96 31 69 44 130 28 130 -15 0 -80 -77 -108 -130
l-25 -45 6 68 c3 38 18 108 33 155 25 79 30 87 57 92 38 8 91 36 130 67 39 32
86 93 79 104 -6 10 -92 -27 -153 -65 l-43 -28 27 50 c15 27 56 89 92 137 53
69 75 91 112 107 69 29 109 64 136 118 14 27 25 54 25 60 0 14 -39 12 -75 -4z"/>
<path d="M2360 3554 c-323 -64 -567 -264 -681 -558 -59 -152 -73 -352 -36
-506 l14 -55 23 48 24 47 90 0 c273 0 568 -77 685 -177 l34 -29 30 27 c109
100 418 179 697 179 87 0 90 -1 96 -25 11 -43 21 -27 33 50 15 102 14 176 -4
280 -59 335 -308 607 -640 700 -59 17 -310 29 -365 19z m420 -144 c0 -5 -16
-10 -35 -10 l-35 0 0 -64 0 -64 -32 -8 c-18 -3 -98 -7 -178 -7 -80 0 -160 4
-177 7 l-33 8 0 64 0 64 -35 0 c-19 0 -35 5 -35 10 0 6 100 10 280 10 180 0
280 -4 280 -10z m-364 -190 l64 0 0 -96 c0 -94 -1 -97 -30 -124 -20 -19 -30
-38 -30 -58 0 -21 10 -39 30 -59 l30 -28 0 -225 0 -225 -27 45 c-54 90 -148
215 -215 286 l-68 71 36 78 c40 87 84 247 84 308 0 39 0 39 31 33 17 -3 60 -6
95 -6z m294 -24 c0 -79 44 -236 94 -335 l27 -53 -73 -76 c-72 -76 -164 -199
-213 -284 l-25 -43 0 227 c0 209 1 228 18 240 49 34 54 89 12 128 -29 27 -30
30 -30 124 l0 95 78 4 c42 1 85 4 95 5 13 2 17 -6 17 -32z"/>
<path d="M2320 3346 l0 -53 38 -7 c20 -3 84 -6 142 -6 58 0 122 3 143 6 l37 7
0 53 0 54 -180 0 -180 0 0 -54z"/>
<path d="M2316 3189 c-3 -8 -8 -36 -11 -64 -9 -64 -51 -197 -82 -258 l-24 -48
72 -82 c39 -45 97 -118 128 -162 l56 -80 3 169 2 169 -25 27 c-49 51 -51 113
-4 157 27 26 29 33 29 100 0 70 -1 73 -24 73 -13 0 -44 3 -69 6 -35 5 -48 3
-51 -7z"/>
<path d="M2583 3193 l-43 -4 0 -73 c0 -67 2 -74 30 -101 24 -23 30 -37 30 -73
0 -35 -6 -49 -30 -74 l-30 -30 2 -170 3 -169 72 98 c40 54 96 125 126 157 l54
60 -33 75 c-34 79 -74 218 -74 257 0 12 -3 29 -6 38 -6 16 -13 17 -101 9z"/>
<path d="M3180 3551 c0 -7 11 -34 25 -61 27 -53 82 -101 142 -122 34 -12 119
-112 173 -203 13 -22 31 -51 39 -65 18 -27 13 -26 -41 12 -42 29 -137 68 -142
59 -10 -15 61 -97 112 -130 28 -18 66 -35 86 -38 32 -5 37 -11 55 -58 23 -62
51 -191 51 -237 0 -31 0 -31 -25 18 -27 55 -90 134 -107 134 -15 0 -3 -67 22
-124 10 -25 40 -68 65 -95 l45 -48 -11 -59 c-11 -65 -45 -182 -56 -201 -5 -6
-8 19 -8 56 0 70 -27 151 -50 151 -31 0 -34 -190 -4 -260 l21 -48 -43 -74
c-42 -72 -127 -198 -134 -198 -2 0 2 19 10 41 17 46 20 129 6 129 -12 0 -44
-46 -60 -85 -6 -17 -17 -64 -24 -105 -10 -62 -17 -77 -37 -88 l-25 -14 25 6
c14 3 34 6 44 6 11 0 17 3 14 6 -4 3 28 49 69 102 73 93 76 96 112 93 53 -3
116 25 155 71 43 49 50 75 25 83 -20 7 -93 -22 -139 -55 -29 -20 -29 -20 19
82 27 57 54 119 60 139 9 27 20 38 48 48 53 19 117 84 143 142 26 61 17 78
-28 55 -27 -14 -93 -85 -121 -131 -11 -18 -11 -16 -5 10 5 17 9 93 9 170 2
135 3 143 30 189 36 61 46 165 21 214 -34 66 -66 26 -66 -82 0 -34 -3 -66 -6
-69 -4 -4 -24 36 -45 88 -21 51 -45 105 -54 119 -15 23 -15 27 7 68 19 36 23
58 23 133 0 78 -3 96 -25 134 -14 25 -30 46 -36 48 -22 7 -31 -143 -15 -254 4
-29 6 -53 5 -53 -2 0 -18 21 -35 48 -18 26 -53 72 -78 103 -25 31 -58 77 -72
101 -15 25 -42 57 -60 71 -38 28 -109 47 -109 28z"/>
<path d="M1820 2132 c0 -4 16 -23 35 -42 19 -19 35 -37 35 -41 0 -4 -12 -10
-26 -13 -15 -4 -25 -9 -23 -11 2 -2 42 7 88 21 86 25 272 53 364 55 29 1 43 4
32 6 -11 3 -24 11 -28 19 -6 11 -53 14 -242 14 -129 0 -235 -4 -235 -8z"/>
<path d="M2720 2126 c0 -9 -13 -16 -32 -19 -23 -3 -17 -4 19 -5 95 -3 279 -32
364 -56 46 -14 86 -23 88 -21 2 2 -8 7 -23 11 -14 3 -26 9 -26 13 0 4 16 22
35 41 19 19 35 38 35 42 0 4 -103 8 -230 8 -193 0 -230 -2 -230 -14z"/>
<path d="M1795 2001 c-41 -25 -68 -57 -62 -73 4 -9 6 -8 6 4 1 15 34 48 77 75
11 6 17 12 14 12 -3 1 -18 -7 -35 -18z"/>
<path d="M3184 2008 c10 -7 33 -24 50 -38 30 -23 30 -24 11 -1 -11 13 -33 29
-50 37 -18 8 -22 9 -11 2z"/>
<path d="M3261 1924 c0 -11 3 -14 6 -6 3 7 2 16 -1 19 -3 4 -6 -2 -5 -13z"/>
<path d="M1570 1853 c-30 -2 -58 -8 -63 -12 -10 -10 32 -47 76 -66 l37 -15 0
44 c0 34 4 46 18 49 19 5 14 5 -68 0z"/>
<path d="M2225 1850 c-57 -6 -57 -7 -15 -8 25 -1 77 -9 115 -17 39 -8 117 -15
175 -15 58 0 136 7 175 15 38 8 88 16 110 17 27 1 18 3 -30 8 -87 9 -449 9
-530 0z"/>
<path d="M3378 1808 l4 -47 36 15 c43 18 85 55 75 65 -5 4 -33 9 -63 11 l-55
3 3 -47z"/>
<path d="M2108 1833 c6 -2 18 -2 25 0 6 3 1 5 -13 5 -14 0 -19 -2 -12 -5z"/>
<path d="M2873 1833 c9 -2 23 -2 30 0 6 3 -1 5 -18 5 -16 0 -22 -2 -12 -5z"/>
<path d="M2038 1823 c6 -2 18 -2 25 0 6 3 1 5 -13 5 -14 0 -19 -2 -12 -5z"/>
<path d="M2938 1823 c6 -2 18 -2 25 0 6 3 1 5 -13 5 -14 0 -19 -2 -12 -5z"/>
<path d="M1960 1810 c-14 -4 -19 -8 -12 -9 10 -1 13 -17 12 -58 -1 -32 -1 -63
-1 -69 1 -10 100 -38 108 -30 2 2 -18 12 -46 21 l-51 17 0 59 c0 53 3 61 23
69 27 11 1 11 -33 0z"/>
<path d="M3005 1810 c11 -5 29 -8 40 -8 16 0 15 2 -5 8 -34 11 -60 11 -35 0z"/>
<path d="M3100 1785 c46 -18 64 -17 25 0 -16 8 -37 14 -45 14 -8 0 1 -7 20
-14z"/>
<path d="M3161 1766 c2 -2 15 -9 29 -15 24 -11 24 -11 6 3 -16 13 -49 24 -35
12z"/>
<path d="M1767 1729 c-29 -24 -37 -37 -37 -64 0 -45 23 -51 96 -26 51 18 77
31 62 31 -3 0 -31 -9 -64 -20 -64 -23 -84 -20 -84 9 0 33 11 51 49 76 19 14
31 25 26 25 -6 0 -27 -14 -48 -31z"/>
<path d="M3238 1716 c29 -38 29 -74 0 -86 -14 -5 -17 -9 -8 -9 46 -2 54 63 13
100 l-27 24 22 -29z"/>
<path d="M3467 1723 l23 -4 -25 -49 c-14 -27 -25 -55 -25 -62 0 -7 13 14 29
47 31 66 31 76 -2 74 l-22 -2 22 -4z"/>
<path d="M1558 1713 c7 -3 16 -2 19 1 4 3 -2 6 -13 5 -11 0 -14 -3 -6 -6z"/>
<path d="M1600 1710 c-9 -6 -10 -10 -3 -10 8 0 13 -22 15 -63 l3 -63 25 14
c23 12 23 13 3 9 -21 -5 -22 -1 -25 59 -3 53 -5 62 -18 54z"/>
<path d="M3380 1663 l0 -58 -82 3 c-46 2 -94 0 -107 -5 -15 -6 7 -8 66 -5 57
3 98 0 112 -7 20 -11 21 -10 21 53 0 63 1 65 28 69 25 4 25 4 -5 6 l-33 1 0
-57z"/>
<path d="M2985 1668 c-27 -11 -52 -22 -55 -25 -10 -11 75 9 95 22 12 7 30 15
40 18 16 4 15 5 -5 5 -14 0 -47 -9 -75 -20z"/>
<path d="M3129 1659 c24 -11 46 -18 48 -15 4 4 -73 36 -85 35 -4 0 13 -9 37
-20z"/>
<path d="M3030 1641 c0 -10 29 -36 34 -30 1 2 -6 12 -16 22 -10 9 -18 13 -18
8z"/>
<path d="M1941 1620 c-13 -11 -19 -20 -14 -20 6 0 18 9 28 20 23 25 17 25 -14
0z"/>
<path d="M1542 1588 c-10 -30 -10 -31 3 -14 13 17 21 46 12 46 -1 0 -8 -15
-15 -32z"/>
<path d="M3088 1603 c7 -3 16 -2 19 1 4 3 -2 6 -13 5 -11 0 -14 -3 -6 -6z"/>
<path d="M1798 1593 c41 -3 52 -8 52 -22 0 -13 -8 -17 -37 -15 l-38 3 35 -7
c41 -8 51 -34 24 -63 -21 -23 -12 -26 10 -3 10 9 16 33 16 59 0 37 3 44 23 48
12 2 -14 4 -58 4 -54 -1 -63 -2 -27 -4z"/>
<path d="M3140 1552 c0 -60 21 -82 82 -88 l43 -3 -44 9 c-24 5 -49 15 -57 21
-20 16 -18 57 4 62 15 4 15 5 -2 6 -13 1 -17 6 -13 21 3 11 1 20 -4 20 -5 0
-9 -22 -9 -48z"/>
<path d="M3474 1541 c9 -16 12 -32 8 -36 -4 -5 -1 -5 5 -1 10 6 10 14 -2 37
-9 16 -18 29 -21 29 -2 0 2 -13 10 -29z"/>
<path d="M3208 1553 c6 -2 18 -2 25 0 6 3 1 5 -13 5 -14 0 -19 -2 -12 -5z"/>
<path d="M1738 1543 c6 -2 18 -2 25 0 6 3 1 5 -13 5 -14 0 -19 -2 -12 -5z"/>
<path d="M3258 1543 c6 -2 18 -2 25 0 6 3 1 5 -13 5 -14 0 -19 -2 -12 -5z"/>
<path d="M1658 1533 c12 -2 32 -2 45 0 12 2 2 4 -23 4 -25 0 -35 -2 -22 -4z"/>
<path d="M3313 1533 c9 -2 23 -2 30 0 6 3 -1 5 -18 5 -16 0 -22 -2 -12 -5z"/>
<path d="M1517 1499 c7 -7 15 -10 18 -7 3 3 -2 9 -12 12 -14 6 -15 5 -6 -5z"/>
<path d="M1588 1473 c7 -3 16 -2 19 1 4 3 -2 6 -13 5 -11 0 -14 -3 -6 -6z"/>
<path d="M3368 1473 c6 -2 18 -2 25 0 6 3 1 5 -13 5 -14 0 -19 -2 -12 -5z"/>
<path d="M1638 1463 c6 -2 18 -2 25 0 6 3 1 5 -13 5 -14 0 -19 -2 -12 -5z"/>
<path d="M3288 1463 c12 -2 32 -2 45 0 12 2 2 4 -23 4 -25 0 -35 -2 -22 -4z"/>
<path d="M890 1210 l0 -140 35 0 34 0 3 61 3 61 45 -61 c43 -57 47 -60 88 -61
l43 0 -56 69 c-30 37 -55 72 -55 76 0 4 17 28 38 54 71 88 69 81 26 81 -36 0
-43 -5 -87 -62 l-47 -62 0 62 0 62 -35 0 -35 0 0 -140z"/>
<path d="M1170 1210 l0 -140 35 0 34 0 3 61 3 61 45 -61 c43 -57 47 -60 88
-61 l43 0 -56 69 c-30 37 -55 72 -55 76 0 4 17 28 38 54 71 88 69 81 26 81
-36 0 -43 -5 -87 -62 l-47 -62 0 62 0 62 -35 0 -35 0 0 -140z"/>
<path d="M1450 1210 l0 -140 80 0 c91 0 124 12 140 49 13 31 1 74 -25 88 -14
8 -13 11 5 28 29 26 26 69 -6 94 -22 17 -41 21 -110 21 l-84 0 0 -140z m138
81 c8 -5 12 -17 10 -27 -2 -14 -13 -20 -41 -22 -35 -3 -37 -2 -37 27 0 27 3
31 28 31 15 0 33 -4 40 -9z m16 -124 c14 -23 -15 -47 -56 -47 -25 0 -28 3 -28
36 0 34 1 35 36 32 22 -2 41 -10 48 -21z"/>
<path d="M1720 1210 l0 -140 67 0 c117 0 183 51 183 142 0 89 -62 138 -177
138 l-73 0 0 -140z m160 60 c48 -48 10 -140 -57 -140 l-33 0 0 80 0 80 35 0
c22 0 43 -8 55 -20z"/>
<path d="M2172 1323 c-5 -15 -28 -79 -51 -140 l-40 -113 33 0 c25 0 35 6 44
25 10 22 18 25 66 25 49 0 54 -2 60 -25 5 -21 12 -25 41 -25 19 0 35 1 35 3 0
1 -22 63 -49 137 l-49 135 -40 3 c-36 3 -41 0 -50 -25z m77 -135 c1 -14 -7
-18 -30 -18 -28 0 -31 2 -25 25 3 13 11 37 17 52 l11 28 13 -35 c8 -19 14 -43
14 -52z"/>
<path d="M2449 1335 c-79 -43 -89 -163 -20 -229 35 -34 104 -45 151 -26 33 14
70 54 70 76 0 22 -63 17 -83 -6 -25 -29 -71 -26 -96 6 -44 56 -13 134 53 134
19 0 39 -7 46 -15 14 -17 80 -21 80 -4 0 6 -15 26 -34 45 -30 30 -40 34 -87
34 -30 -1 -66 -7 -80 -15z"/>
<path d="M2733 1210 l-50 -140 34 0 c27 0 35 5 43 25 9 22 15 25 65 25 50 0
55 -2 61 -25 5 -21 12 -25 40 -25 19 0 34 3 34 8 0 4 -22 66 -48 137 l-47 130
-41 3 -41 3 -50 -141z m121 -18 c7 -20 4 -22 -29 -22 -34 0 -37 2 -31 25 3 13
11 37 17 52 l11 28 13 -31 c7 -17 16 -40 19 -52z"/>
<path d="M3000 1210 l0 -140 68 0 c142 0 217 92 163 203 -28 59 -67 77 -160
77 l-71 0 0 -140z m159 54 c45 -57 8 -134 -64 -134 l-35 0 0 80 0 80 39 0 c31
0 44 -6 60 -26z"/>
<path d="M3290 1210 l0 -140 85 0 c84 0 85 0 85 25 0 23 -3 25 -50 25 l-50 0
0 35 c0 35 0 35 45 35 41 0 45 2 45 25 0 23 -4 25 -45 25 -43 0 -45 1 -45 30
0 29 1 30 50 30 47 0 50 2 50 25 0 25 -1 25 -85 25 l-85 0 0 -140z"/>
<path d="M3510 1210 l0 -140 30 0 29 0 3 83 3 82 31 -80 c29 -73 34 -80 59
-80 25 0 30 7 59 80 l31 80 3 -82 3 -83 29 0 30 0 0 140 0 140 -38 0 -39 0
-37 -95 c-21 -52 -39 -95 -41 -95 -2 0 -20 43 -41 95 l-37 95 -39 0 -38 0 0
-140z"/>
<path d="M3860 1343 c0 -5 21 -46 45 -92 36 -66 45 -93 45 -132 l0 -49 35 0
35 0 0 50 c0 40 9 66 45 133 25 46 45 87 45 90 0 4 -16 7 -36 7 -33 0 -37 -3
-59 -55 -14 -30 -27 -55 -29 -55 -3 0 -16 25 -30 55 -23 52 -27 55 -60 55 -20
0 -36 -3 -36 -7z"/>
</g>
</svg>
